<svg width="24" height="24" viewBox="0 0 24 24" fill="none" xmlns="http://www.w3.org/2000/svg">
<path d="M17.569 12.428C17.549 10.23 19.385 9.15 19.47 9.097C18.422 7.587 16.825 7.392 16.249 7.377C14.858 7.235 13.509 8.225 12.8 8.225C12.08 8.225 10.982 7.39 9.767 7.414C8.188 7.439 6.709 8.334 5.898 9.741C4.236 12.606 5.467 16.834 7.072 19.149C7.875 20.285 8.817 21.561 10.032 21.515C11.22 21.466 11.687 20.782 13.127 20.782C14.554 20.782 14.993 21.515 16.232 21.488C17.508 21.466 18.322 20.339 19.098 19.195C20.031 17.88 20.419 16.588 20.433 16.525C20.405 16.515 17.592 15.466 17.569 12.428Z" fill="black"/>
<path d="M14.863 5.722C15.479 4.96 15.902 3.91 15.784 2.846C14.892 2.882 13.796 3.455 13.154 4.2C12.585 4.855 12.083 5.944 12.217 6.972C13.211 7.049 14.234 6.473 14.863 5.722Z" fill="black"/>
</svg>