<svg preserveAspectRatio="none" width="100%" height="100%" overflow="visible" style="display: block;" viewBox="0 0 20 19" fill="none" xmlns="http://www.w3.org/2000/svg">
<path id="Vector" d="M9.329 11.4597L2.12 18.6667C2.02775 18.7622 1.91741 18.8384 1.7954 18.8908C1.6734 18.9432 1.54218 18.9708 1.4094 18.972C1.27662 18.9731 1.14494 18.9478 1.02205 18.8975C0.89915 18.8473 0.787498 18.773 0.693605 18.6791C0.599712 18.5852 0.525459 18.4736 0.475178 18.3507C0.424897 18.2278 0.399596 18.0961 0.40075 17.9633C0.401903 17.8305 0.42949 17.6993 0.481899 17.5773C0.534308 17.4553 0.61049 17.345 0.706 17.2527L8.03 9.92871C7.97299 9.61121 7.99362 9.28462 8.09014 8.97681C8.18666 8.66901 8.3562 8.38911 8.5843 8.16101C8.8124 7.93291 9.09229 7.76337 9.4001 7.66685C9.70791 7.57033 10.0345 7.5497 10.352 7.60671L17.679 0.280712C17.8676 0.0985537 18.1202 -0.00224062 18.3824 3.78026e-05C18.6446 0.00231622 18.8954 0.107485 19.0808 0.292893C19.2662 0.478301 19.3714 0.729114 19.3737 0.991311C19.376 1.25351 19.2752 1.50611 19.093 1.69471L11.885 8.90471C12.0123 9.26128 12.0358 9.64666 11.9527 10.016C11.8696 10.3854 11.6834 10.7236 11.4156 10.9914C11.1479 11.2591 10.8097 11.4453 10.4403 11.5284C10.0709 11.6115 9.68557 11.587 9.329 11.4597ZM16.869 5.33271C18.75 6.41671 20 7.91471 20 9.57471C20 12.8887 15.042 15.5677 10 15.5747C8.97395 15.5749 7.95071 15.4676 6.947 15.2547L8.808 13.3947C9.5048 13.6125 10.2479 13.6354 10.9568 13.4609C11.6657 13.2865 12.3133 12.9214 12.8295 12.4052C13.3457 11.889 13.7108 11.2414 13.8852 10.5325C14.0596 9.82361 14.0367 9.08051 13.819 8.38371L16.869 5.33271ZM12.709 3.83671L10.875 5.67071C10.217 5.523 9.53234 5.54405 8.88466 5.7319C8.23697 5.91975 7.6473 6.2683 7.17044 6.74515C6.69359 7.22201 6.34504 7.81169 6.15719 8.45937C5.96934 9.10705 5.94829 9.79171 6.096 10.4497L2.869 13.6747C1.134 12.6027 0 11.1597 0 9.57471C0 6.26071 4.984 3.55771 10 3.57471C10.914 3.57771 11.827 3.66871 12.709 3.83671Z" fill="var(--fill-0, #898989)"/>
</svg>
