<svg width="24" height="24" viewBox="0 0 24 24" fill="none" xmlns="http://www.w3.org/2000/svg">
<path d="M22.56 12.25C22.56 11.47 22.49 10.72 22.36 10H12V14.255H17.92C17.665 15.63 16.89 16.795 15.725 17.575V20.335H19.28C21.36 18.42 22.56 15.6 22.56 12.25Z" fill="#4285F4"/>
<path d="M12 23C14.97 23 17.46 22.015 19.28 20.335L15.725 17.575C14.74 18.235 13.48 18.625 12 18.625C9.135 18.625 6.71 16.69 5.84 14.09H2.18V16.94C3.99 20.535 7.7 23 12 23Z" fill="#34A853"/>
<path d="M5.84 14.09C5.62 13.43 5.49 12.73 5.49 12C5.49 11.27 5.62 10.57 5.84 9.91V7.06H2.18C1.43 8.555 1 10.22 1 12C1 13.78 1.43 15.445 2.18 16.94L5.84 14.09Z" fill="#FBBC05"/>
<path d="M12 5.375C13.615 5.375 15.065 5.93 16.205 7.02L19.36 3.865C17.455 2.09 14.965 1 12 1C7.7 1 3.99 3.465 2.18 7.06L5.84 9.91C6.71 7.31 9.135 5.375 12 5.375Z" fill="#EA4335"/>
</svg>