<svg preserveAspectRatio="none" width="100%" height="100%" overflow="visible" style="display: block;" viewBox="0 0 24 24" fill="none" xmlns="http://www.w3.org/2000/svg">
<g id="Vector">
<path d="M14.4 0V4.8L9.6 4.8C9.6 2.14903 11.749 -3.18663e-07 14.4 0Z" fill="var(--fill-0, #E2292D)"/>
<path d="M14.4 0C17.051 3.18663e-07 19.2 2.14903 19.2 4.8V9.6L14.4 9.6V0Z" fill="var(--fill-0, #E2292D)"/>
<path d="M24 14.4L19.2 14.4L19.2 9.6C21.851 9.6 24 11.749 24 14.4Z" fill="var(--fill-0, #E2292D)"/>
<path d="M24 14.4C24 17.051 21.851 19.2 19.2 19.2H14.4L14.4 14.4L24 14.4Z" fill="var(--fill-0, #E2292D)"/>
<path d="M9.6 24L9.6 19.2H14.4C14.4 21.851 12.251 24 9.6 24Z" fill="var(--fill-0, #E2292D)"/>
<path d="M9.6 24C6.94903 24 4.8 21.851 4.8 19.2L4.8 14.4L9.6 14.4L9.6 24Z" fill="var(--fill-0, #E2292D)"/>
<path d="M0 9.6H4.8L4.8 14.4C2.14904 14.4 -2.02786e-07 12.251 0 9.6Z" fill="var(--fill-0, #E2292D)"/>
<path d="M0 9.6C2.02786e-07 6.94903 2.14903 4.8 4.8 4.8L9.6 4.8L9.6 9.6L0 9.6Z" fill="var(--fill-0, #E2292D)"/>
</g>
</svg>
